<svg width="1200" height="800" viewBox="0 0 1200 800" fill="none" xmlns="http://www.w3.org/2000/svg">
  <defs>
    <linearGradient id="bg" x1="0" y1="0" x2="1200" y2="800" gradientUnits="userSpaceOnUse">
      <stop stop-color="#0B1224"/>
      <stop offset="1" stop-color="#18233A"/>
    </linearGradient>
    <linearGradient id="sun" x1="850" y1="120" x2="980" y2="250" gradientUnits="userSpaceOnUse">
      <stop stop-color="#F59E0B"/>
      <stop offset="1" stop-color="#FB7185"/>
    </linearGradient>
    <linearGradient id="mount" x1="220" y1="290" x2="1010" y2="650" gradientUnits="userSpaceOnUse">
      <stop stop-color="#667EEA"/>
      <stop offset="1" stop-color="#764BA2"/>
    </linearGradient>
  </defs>
  <rect width="1200" height="800" fill="url(#bg)"/>
  <circle cx="925" cy="185" r="82" fill="url(#sun)" fill-opacity="0.9"/>
  <path d="M0 650C111 585 182 560 282 560C385 560 456 615 560 615C665 615 733 545 844 545C962 545 1046 614 1200 680V800H0V650Z" fill="#0F172A"/>
  <path d="M120 620L350 360L510 555L650 430L860 620H120Z" fill="url(#mount)" fill-opacity="0.75"/>
  <path d="M250 620L430 460L520 555L660 500L810 620H250Z" fill="#A78BFA" fill-opacity="0.28"/>
  <rect x="170" y="160" width="320" height="84" rx="26" fill="#FFFFFF" fill-opacity="0.08"/>
  <text x="330" y="214" text-anchor="middle" fill="#FFFFFF" font-family="Inter, Arial, sans-serif" font-size="34" font-weight="800">TravelDeal</text>
  <text x="600" y="700" text-anchor="middle" fill="#E5E7EB" font-family="Inter, Arial, sans-serif" font-size="54" font-weight="800">Фото направления временно недоступно</text>
  <text x="600" y="748" text-anchor="middle" fill="#CBD5E1" font-family="Inter, Arial, sans-serif" font-size="24" font-weight="500">Локальная заглушка загружена с вашего хостинга</text>
</svg>
