<svg width="1200" height="800" viewBox="0 0 1200 800" fill="none" xmlns="http://www.w3.org/2000/svg">
  <defs>
    <linearGradient id="bg" x1="0" y1="0" x2="1200" y2="800" gradientUnits="userSpaceOnUse">
      <stop stop-color="#0F172A"/>
      <stop offset="1" stop-color="#1E293B"/>
    </linearGradient>
    <linearGradient id="card" x1="280" y1="180" x2="920" y2="620" gradientUnits="userSpaceOnUse">
      <stop stop-color="#667EEA"/>
      <stop offset="1" stop-color="#764BA2"/>
    </linearGradient>
  </defs>
  <rect width="1200" height="800" fill="url(#bg)"/>
  <circle cx="980" cy="140" r="120" fill="#667EEA" fill-opacity="0.15"/>
  <circle cx="170" cy="640" r="140" fill="#A78BFA" fill-opacity="0.12"/>
  <rect x="280" y="160" width="640" height="420" rx="32" fill="url(#card)" fill-opacity="0.18" stroke="rgba(255,255,255,0.22)"/>
  <rect x="360" y="250" width="480" height="200" rx="24" fill="#FFFFFF" fill-opacity="0.08" stroke="rgba(255,255,255,0.18)"/>
  <rect x="420" y="210" width="360" height="60" rx="20" fill="#FFFFFF" fill-opacity="0.1"/>
  <path d="M470 420V330C470 307.909 487.909 290 510 290H690C712.091 290 730 307.909 730 330V420" stroke="#E5E7EB" stroke-width="18" stroke-linecap="round"/>
  <rect x="455" y="420" width="290" height="56" rx="20" fill="#E5E7EB" fill-opacity="0.92"/>
  <rect x="500" y="332" width="55" height="55" rx="12" fill="#0F172A" fill-opacity="0.28"/>
  <rect x="573" y="332" width="55" height="55" rx="12" fill="#0F172A" fill-opacity="0.28"/>
  <rect x="646" y="332" width="55" height="55" rx="12" fill="#0F172A" fill-opacity="0.28"/>
  <text x="600" y="650" text-anchor="middle" fill="#FFFFFF" font-family="Inter, Arial, sans-serif" font-size="48" font-weight="800">TravelDeal Hotel</text>
  <text x="600" y="702" text-anchor="middle" fill="#CBD5E1" font-family="Inter, Arial, sans-serif" font-size="24" font-weight="500">Фото временно недоступно</text>
</svg>
